<svg width="124" height="25" viewBox="0 0 124 25" fill="none" xmlns="http://www.w3.org/2000/svg">
<path d="M0.875 1.45312H10.0469C12.3698 1.45312 14.25 2.16146 15.6875 3.57812C17.1354 4.99479 17.8594 6.85938 17.8594 9.17188C17.8594 11.474 17.1146 13.3385 15.625 14.7656C14.1354 16.1823 12.1979 16.8906 9.8125 16.8906H5.59375V24H0.875V1.45312ZM5.59375 5.1875V13.2031H8.78125C10.1354 13.2031 11.1875 12.8542 11.9375 12.1562C12.6875 11.4583 13.0625 10.4688 13.0625 9.1875C13.0625 7.90625 12.6875 6.92188 11.9375 6.23438C11.1979 5.53646 10.151 5.1875 8.79688 5.1875H5.59375ZM33.4531 22.0469C31.9635 23.5885 29.9427 24.3594 27.3906 24.3594C24.8385 24.3594 22.8177 23.5833 21.3281 22.0312C19.8385 20.4792 19.0938 18.3385 19.0938 15.6094C19.0938 12.9115 19.8438 10.7865 21.3438 9.23438C22.8542 7.67188 24.8698 6.89062 27.3906 6.89062C29.9219 6.89062 31.9375 7.67188 33.4375 9.23438C34.9375 10.7865 35.6875 12.9115 35.6875 15.6094C35.6875 18.349 34.9427 20.4948 33.4531 22.0469ZM27.3906 20.875C28.5156 20.875 29.4062 20.4167 30.0625 19.5C30.7188 18.5833 31.0469 17.2917 31.0469 15.625C31.0469 13.9792 30.7188 12.6927 30.0625 11.7656C29.4062 10.8385 28.5156 10.375 27.3906 10.375C26.2656 10.375 25.3698 10.8385 24.7031 11.7656C24.0469 12.6927 23.7188 13.9792 23.7188 15.625C23.7188 17.2917 24.0469 18.5833 24.7031 19.5C25.3594 20.4167 26.2552 20.875 27.3906 20.875ZM42.7812 13.9688L48.4688 7.25H53.6406L47.25 14.4375L53.9531 24H48.7031L43.9062 17.1875L42.7188 18.4688V24H38.1562V1.45312H42.7188V13.9688H42.7812ZM62 10.2656C61.0104 10.2656 60.1823 10.6042 59.5156 11.2812C58.8594 11.9583 58.4896 12.8229 58.4062 13.875H65.5156C65.4635 12.8021 65.1146 11.9323 64.4688 11.2656C63.8333 10.599 63.0104 10.2656 62 10.2656ZM65.5781 18.875H69.7656C69.5156 20.5208 68.6927 21.849 67.2969 22.8594C65.9115 23.8594 64.1875 24.3594 62.125 24.3594C59.5521 24.3594 57.5312 23.5885 56.0625 22.0469C54.6042 20.5052 53.875 18.3906 53.875 15.7031C53.875 13.026 54.6042 10.8906 56.0625 9.29688C57.5208 7.69271 59.4844 6.89062 61.9531 6.89062C64.3802 6.89062 66.3125 7.65104 67.75 9.17188C69.1875 10.6927 69.9062 12.7292 69.9062 15.2812V16.6719H58.3594V16.9531C58.3594 18.151 58.7083 19.125 59.4062 19.875C60.1146 20.6146 61.0469 20.9844 62.2031 20.9844C63.0365 20.9844 63.7552 20.7969 64.3594 20.4219C64.9635 20.0365 65.3698 19.5208 65.5781 18.875ZM63.7344 4.89062H60.0938L63.5469 0.046875H67.7344L63.7344 4.89062ZM78.4844 24.2656C76.3906 24.2656 74.7292 23.4896 73.5 21.9375C72.2708 20.3854 71.6562 18.2708 71.6562 15.5938C71.6562 12.9375 72.2708 10.8385 73.5 9.29688C74.7396 7.75521 76.4115 6.98438 78.5156 6.98438C79.7031 6.98438 80.7448 7.27083 81.6406 7.84375C82.5469 8.41667 83.2083 9.17708 83.625 10.125H83.7188V1.45312H88.2812V24H83.7812V21.125H83.7031C83.2865 22.0729 82.6146 22.8333 81.6875 23.4062C80.7604 23.9792 79.6927 24.2656 78.4844 24.2656ZM80.0312 10.6406C78.8854 10.6406 77.9792 11.0885 77.3125 11.9844C76.6562 12.8802 76.3281 14.0938 76.3281 15.625C76.3281 17.1667 76.6562 18.3802 77.3125 19.2656C77.9792 20.151 78.8854 20.5938 80.0312 20.5938C81.1667 20.5938 82.0677 20.151 82.7344 19.2656C83.4115 18.3698 83.75 17.1562 83.75 15.625C83.75 14.1042 83.4115 12.8958 82.7344 12C82.0677 11.0938 81.1667 10.6406 80.0312 10.6406ZM98.8438 10.2656C97.8542 10.2656 97.026 10.6042 96.3594 11.2812C95.7031 11.9583 95.3333 12.8229 95.25 13.875H102.359C102.307 12.8021 101.958 11.9323 101.312 11.2656C100.677 10.599 99.8542 10.2656 98.8438 10.2656ZM102.422 18.875H106.609C106.359 20.5208 105.536 21.849 104.141 22.8594C102.755 23.8594 101.031 24.3594 98.9688 24.3594C96.3958 24.3594 94.375 23.5885 92.9062 22.0469C91.4479 20.5052 90.7188 18.3906 90.7188 15.7031C90.7188 13.026 91.4479 10.8906 92.9062 9.29688C94.3646 7.69271 96.3281 6.89062 98.7969 6.89062C101.224 6.89062 103.156 7.65104 104.594 9.17188C106.031 10.6927 106.75 12.7292 106.75 15.2812V16.6719H95.2031V16.9531C95.2031 18.151 95.5521 19.125 96.25 19.875C96.9583 20.6146 97.8906 20.9844 99.0469 20.9844C99.8802 20.9844 100.599 20.7969 101.203 20.4219C101.807 20.0365 102.214 19.5208 102.422 18.875ZM115.75 18.1875H115.656L112.516 24H107.719L112.969 15.6562L107.75 7.25H112.891L115.906 12.9062H116L118.969 7.25H123.938L118.703 15.5312L123.891 24H118.938L115.75 18.1875Z" fill="#17171B"/>
</svg>
